<mxfile host="app.diagrams.net" modified="2023-11-05T15:47:28.081Z" agent="Mozilla/5.0 (Windows NT 10.0; Win64; x64) AppleWebKit/537.36 (KHTML, like Gecko) Chrome/119.0.0.0 Safari/537.36" version="22.0.8" etag="vJqD3XM7E4Y6RUU8JHIr" type="github">
  <diagram name="Page-1" id="Bw0KMpwOQqlo18MAMoen">
    <mxGraphModel>
      <root>
        <mxCell id="0" />
        <mxCell id="1" parent="0" />
      </root>
    </mxGraphModel>
  </diagram>
</mxfile>
